<?xml version="1.0" encoding="UTF-8"?>
<svg width="94px" height="61px" viewBox="0 0 94 61" version="1.1" xmlns="http://www.w3.org/2000/svg" xmlns:xlink="http://www.w3.org/1999/xlink">
    <!-- Generator: Sketch 54.1 (76490) - https://sketchapp.com -->
    <title>Shape</title>
    <desc>Created with Sketch.</desc>
    <g id="Page-1" stroke="none" stroke-width="1" fill="none" fill-rule="evenodd">
        <g id="email" transform="translate(1.000000, 1.000000)" fill="#000000" fill-rule="nonzero">
            <path d="M-0.720476398,3.11071621 C-1.35832172,0.721922938 0.240559469,-1 3.2,-1 L87.8,-1 C90.7594405,-1 92.3583217,0.721922938 91.7204764,3.11071621 C91.2925161,4.71346962 89.8368117,6.40445809 88.2401613,7.25123843 L50.6926816,27.4300419 C47.4193201,28.9527858 43.6406799,28.9527858 40.2907201,27.3917118 L2.76371952,7.25332138 C1.16109344,6.40202403 -0.292824079,4.71231607 -0.720476398,3.11071621 Z M2.1779764,2.33678379 C2.37902575,3.08973333 3.27206481,4.12711342 4.17281739,4.60484049 L4.17927991,4.60828823 L41.6326816,24.7099581 C44.1037486,25.8594804 46.9562514,25.8594804 49.3498387,24.7487616 L86.8271826,4.60484049 C87.7279352,4.12711342 88.6209742,3.08973333 88.8220236,2.33678379 C88.8636615,2.18084575 88.8662603,2.15668552 88.8881704,2.17694392 C88.8055665,2.10191675 88.4674716,2 87.8,2 L3.2,2 C2.54996058,2 2.21231799,2.09666281 2.11761915,2.17243726 C2.13458981,2.1624887 2.14030739,2.19570965 2.1779764,2.33678379 Z M87.8655619,14.6004303 C89.1257152,13.9446343 90.1750441,13.7982103 91.0606637,14.4465 C91.7846163,14.9764464 91.9668301,15.6159245 92.0228584,16.593134 C92.0272724,16.6701194 92.0301895,16.7345493 92.0352662,16.857266 C92.0369139,16.8965934 92.0369139,16.8965934 92.04,17 L92.04,53.71 C92.04,56.6401324 88.5276151,60 85.54,60 L5.5,60 C2.48063627,60 -1,56.6578743 -1,53.71 L-1,17.03 L-1.00009363,16.9540481 C-1.0003109,16.8404846 -1.00021672,16.7830382 -0.999372485,16.7121376 C-0.987409613,15.7074701 -0.838493883,15.0640385 -0.126565157,14.5009497 C0.750757446,13.8070452 1.81326082,13.9395794 3.13528799,14.6008745 L41.6485835,34.7479148 C42.7938882,35.3617512 44.086562,35.6471096 45.3838467,35.5724762 L45.5561533,35.5724762 C46.853438,35.6471096 48.1461118,35.3617512 49.3055619,34.7404303 L87.8655619,14.6004303 Z M50.7085835,37.3920852 C49.1012704,38.2535393 47.2903521,38.6611685 45.4700003,38.5721095 C43.6496515,38.6611703 41.8389363,38.2536487 40.244712,37.3991255 L2,17.3923885 L2,53.71 C2,54.9731527 4.11084769,57 5.5,57 L85.54,57 C86.8998215,57 89.04,54.9527539 89.04,53.71 L89.041467,17.3708046 L50.7085835,37.3920852 Z" id="Shape"></path>
        </g>
    </g>
</svg>