<?xml version="1.0" encoding="UTF-8"?>
<svg width="93px" height="84px" viewBox="0 0 93 84" version="1.1" xmlns="http://www.w3.org/2000/svg" xmlns:xlink="http://www.w3.org/1999/xlink">
    <!-- Generator: Sketch 54.1 (76490) - https://sketchapp.com -->
    <title>home</title>
    <desc>Created with Sketch.</desc>
    <g id="Page-1" stroke="none" stroke-width="1" fill="none" fill-rule="evenodd">
        <g id="home" transform="translate(1.000000, 1.000000)" fill="#000000" fill-rule="nonzero">
            <path d="M10.21,47.62 L10.21,77 C10.21,80.7917855 11.4593354,82.5 15.83,82.5 L36.81,82.5 L36.81,51.57 L54.19,51.57 L54.19,82.5 L76.13,82.5 C79.8022739,82.5 80.78,80.7413039 80.78,77 L80.78,47.62 L87.64,47.62 C91.940002,47.62 93.4067863,44.3019919 90.430762,41.20983 L90.4110565,41.1897363 L50.2910565,1.03973631 C49.0577904,-0.250966657 47.3184335,-0.994512656 45.5,-0.994512656 C43.6815665,-0.994512656 41.9422096,-0.250966657 40.6856977,1.06352112 L0.588943493,41.1897363 C-2.40611331,44.3012926 -0.950851255,47.62 3.35,47.62 L10.21,47.62 Z M87.64,44.62 L77.78,44.62 L77.78,77 C77.78,79.3047952 77.6714782,79.5 76.13,79.5 L57.19,79.5 L57.19,48.57 L33.81,48.57 L33.81,79.5 L15.83,79.5 C13.355188,79.5 13.21,79.3014847 13.21,77 L13.21,44.62 L3.35,44.62 C1.67384591,44.62 1.604056,44.460845 2.73076197,43.29017 L42.8310565,3.16026369 C43.5448179,2.41410271 44.5006807,2.00548734 45.5,2.00548734 C46.4993193,2.00548734 47.4551821,2.41410271 48.1456977,3.13647888 L88.2788404,43.300153 C89.3922401,44.4583648 89.3159967,44.62 87.64,44.62 Z" id="Path"></path>
        </g>
    </g>
</svg>