<svg xmlns="http://www.w3.org/2000/svg" viewBox="0 0 36 35.97"><defs><style>.cls-1{fill:#fff;}</style></defs><title>instagram</title><g id="Layer_2" data-name="Layer 2"><g id="Layer_1-2" data-name="Layer 1"><path class="cls-1" d="M29,0H7A7,7,0,0,0,0,7V29a7,7,0,0,0,7,7H29a7,7,0,0,0,7-7V7a7,7,0,0,0-7-7m2,4.15h.79v6.1l-6.08,0,0-6.1ZM12.86,14.29A6.32,6.32,0,1,1,11.66,18a6.33,6.33,0,0,1,1.2-3.69M32.49,29A3.45,3.45,0,0,1,29,32.47H7A3.45,3.45,0,0,1,3.51,29V14.29H8.88a9.84,9.84,0,1,0,18.24,0h5.37Z"/></g></g></svg>