<svg xmlns="http://www.w3.org/2000/svg" viewBox="0 0 36 33.08"><defs><style>.cls-1{fill:#fff;}</style></defs><title>linkedin</title><g id="Layer_2" data-name="Layer 2"><g id="Layer_1-2" data-name="Layer 1"><path class="cls-1" d="M7.93,33.08H.9V10.61h7ZM4.24,7.8H4.18A3.9,3.9,0,0,1,0,3.9C0,1.68,1.69,0,4.29,0A3.92,3.92,0,0,1,8.52,3.9c0,2.18-1.65,3.9-4.28,3.9M36,33.08H28V21.45c0-3-1.24-5.12-4-5.12a4,4,0,0,0-3.8,2.76,5.07,5.07,0,0,0-.17,1.84V33.08H12.21s.11-20.6,0-22.47h7.88v3.52c.47-1.54,3-3.74,7-3.74,5,0,8.91,3.23,8.91,10.19Z"/></g></g></svg>