<?xml version="1.0" encoding="UTF-8"?>
<svg width="84px" height="84px" viewBox="0 0 84 84" version="1.1" xmlns="http://www.w3.org/2000/svg" xmlns:xlink="http://www.w3.org/1999/xlink">
    <!-- Generator: Sketch 54.1 (76490) - https://sketchapp.com -->
    <title>phone</title>
    <desc>Created with Sketch.</desc>
    <g id="Page-1" stroke="none" stroke-width="1" fill="none" fill-rule="evenodd">
        <g id="phone" transform="translate(1.000000, 1.000000)" fill="#000000" fill-rule="nonzero">
            <path d="M26.9906602,57.4393398 C26.6749789,57.1236585 25.6305152,56.0639241 25.5231012,55.955721 C24.943809,55.372173 24.4992818,54.9379864 24.0614142,54.5339829 C18.7628592,49.645212 13.8447085,49.8549047 5.16996993,56.831093 C0.312759394,60.7372414 -1.59265346,64.561296 -0.843488426,68.4218723 C-0.281222275,71.3193264 1.45587497,73.6486294 4.88636081,76.9609554 C4.74892211,76.8282506 6.89575579,78.8760342 7.41828497,79.3996043 C15.0016684,86.9829888 38.5786852,78.0926352 58.3306602,58.3406602 C78.0864939,38.5848265 86.9834073,14.9959469 79.3888299,7.42751268 C78.8739545,6.91263417 76.9091366,4.85003772 76.9395653,4.88154301 C73.6448501,1.47026164 71.3013255,-0.271346867 68.3996411,-0.830286176 C64.5366589,-1.57439625 60.7111365,0.330350717 56.811093,5.17996993 C49.8356579,13.8537719 49.6296383,18.7716542 54.5233488,24.0718037 C54.927409,24.5094224 55.3613917,24.9535053 55.945644,25.5332898 C56.0442667,25.6311582 57.1115542,26.6828745 57.4293398,27.0006602 C59.5703663,29.1299308 54.9973982,36.1612815 45.5793398,45.5793398 C36.1828679,54.9876906 29.1271298,59.5758094 26.9906602,57.4393398 Z M59.5477342,24.8764219 C59.2234851,24.5521648 58.1503393,23.4946757 58.0588066,23.4038429 C57.5029056,22.852193 57.0964939,22.4363227 56.727497,22.0366794 C52.9135029,17.9059203 53.0501643,14.643684 59.148907,7.06003007 C62.4144117,2.99944595 65.2057303,1.6096343 67.8321952,2.11555924 C69.9343009,2.52047906 71.897535,3.97947165 74.7816973,6.96567491 C74.7280432,6.91012256 76.7222498,9.00357012 77.2693398,9.55066017 C79.7120576,11.9849725 79.6463389,18.4070802 76.589008,26.5131511 C73.0382678,35.9274253 66.0241066,46.4045731 56.2093398,56.2193398 C46.3949193,66.0337604 35.9203691,73.0456546 26.5070098,76.595217 C18.402865,79.6511046 11.9790989,79.7177786 9.54066017,77.2793398 C8.98850242,76.7260811 6.80720061,74.6454197 6.97018758,74.8027927 C3.96522934,71.9013374 2.50867006,69.9482125 2.1015723,67.8503678 C1.59286626,65.2289181 2.98250425,62.4399942 7.05003007,59.168907 C14.6353671,53.0688107 17.8986059,52.9296777 22.0270689,56.7388501 C22.4268226,57.1076873 22.8429911,57.5141749 23.3940314,58.0692635 C23.4944316,58.1704013 24.544363,59.2356834 24.8693398,59.5606602 C29.0190196,63.7103399 36.6984551,58.7167202 47.7009952,47.7003252 C58.7350589,36.6662073 63.7103405,29.0161568 59.5477342,24.8764219 Z" id="Path"></path>
        </g>
    </g>
</svg>