<svg xmlns="http://www.w3.org/2000/svg" viewBox="0 0 36 29.25"><defs><style>.cls-1{fill:#fff;}</style></defs><title>twitter</title><g id="Layer_2" data-name="Layer 2"><g id="Layer_1-2" data-name="Layer 1"><path class="cls-1" d="M36,3.46a14.81,14.81,0,0,1-4.24,1.16A7.39,7.39,0,0,0,35,.54a14.77,14.77,0,0,1-4.69,1.79A7.39,7.39,0,0,0,17.73,9.07,21,21,0,0,1,2.5,1.35a7.4,7.4,0,0,0,2.29,9.86,7.43,7.43,0,0,1-3.35-.92v.09a7.39,7.39,0,0,0,5.93,7.24,7.17,7.17,0,0,1-1.95.26A7.38,7.38,0,0,1,4,17.75a7.39,7.39,0,0,0,6.9,5.13A14.83,14.83,0,0,1,1.76,26,14.85,14.85,0,0,1,0,25.94a20.92,20.92,0,0,0,11.32,3.32c13.59,0,21-11.25,21-21,0-.32,0-.64,0-1A14.94,14.94,0,0,0,36,3.46"/></g></g></svg>